<?xml version="1.0" encoding="UTF-8" standalone="no"?>
<!-- Created with Inkscape (http://www.inkscape.org/) -->

<svg
   xmlns:dc="http://purl.org/dc/elements/1.1/"
   xmlns:cc="http://creativecommons.org/ns#"
   xmlns:rdf="http://www.w3.org/1999/02/22-rdf-syntax-ns#"
   xmlns:svg="http://www.w3.org/2000/svg"
   xmlns="http://www.w3.org/2000/svg"
   xmlns:sodipodi="http://sodipodi.sourceforge.net/DTD/sodipodi-0.dtd"
   xmlns:inkscape="http://www.inkscape.org/namespaces/inkscape"
   id="svg2876"
   version="1.1"
   inkscape:version="0.48.2 r9819"
   width="350"
   height="262"
   sodipodi:docname="Watering-can.svg">
  <metadata
     id="metadata2882">
    <rdf:RDF>
      <cc:Work
         rdf:about="">
        <dc:format>image/svg+xml</dc:format>
        <dc:type
           rdf:resource="http://purl.org/dc/dcmitype/StillImage" />
        <dc:title />
      </cc:Work>
    </rdf:RDF>
  </metadata>
  <defs
     id="defs2880">
    <inkscape:perspective
       sodipodi:type="inkscape:persp3d"
       inkscape:vp_x="0 : 0.5 : 1"
       inkscape:vp_y="0 : 1000 : 0"
       inkscape:vp_z="1 : 0.5 : 1"
       inkscape:persp3d-origin="0.5 : 0.33333333 : 1"
       id="perspective2884" />
  </defs>
  <sodipodi:namedview
     pagecolor="#ffffff"
     bordercolor="#666666"
     borderopacity="1"
     objecttolerance="10"
     gridtolerance="10"
     guidetolerance="10"
     inkscape:pageopacity="0"
     inkscape:pageshadow="2"
     inkscape:window-width="1920"
     inkscape:window-height="1056"
     id="namedview2878"
     showgrid="false"
     inkscape:zoom="2.5477435"
     inkscape:cx="107.55572"
     inkscape:cy="122.84076"
     inkscape:window-x="0"
     inkscape:window-y="24"
     inkscape:window-maximized="1"
     inkscape:current-layer="svg2876" />
  <path
     style="color:#000000;fill:#008400;fill-opacity:1;fill-rule:nonzero;stroke:none;stroke-width:5.02440929000000036;marker:none;visibility:visible;display:inline;overflow:visible;enable-background:accumulate;stroke-opacity:1"
     d="m 125.02812,61.526099 c -11.2992,0.139791 -21.67651,0.976846 -29.03125,2.65625 -12.47311,2.84815 -23.29892,11.054032 -28.5,21.625 -3.244109,6.59351 -3.678529,20.508871 -0.9375,30.093751 1.79689,6.28343 9.06821,24.73373 19.8125,43.40625 l 5.4375,9.46875 -0.6875,13.75 c -0.70546,18.2638 -0.34664,20.806 3.125,22.3125 2.62463,1.13895 31.67338,3.21929 39.78125,2.84375 3.85,-0.17832 14.65,-0.58301 24,-0.90625 22.17348,-0.76656 44.61071,-4.3925 46.53125,-7.5 0.38498,-0.6229 0.97764,-0.68889 1.3125,-5.03125 0.67294,-8.72652 -1.09369,-9.47221 21.96875,-44.9375 14.93092,-22.96068 24.31659,-37.60997 27.71875,-43.3125 3.3783,-5.66252 9.78014,-12.707711 16.40625,-18.218751 10.61695,-4.238505 23.36337,-10.119099 25.6875,-14.625 4.0939,-7.937026 -39.52951,-13.032057 -38.5625,-5.5 0.52644,4.100423 -0.13277,11.268339 -0.84375,17 -4.50357,3.84604 -9.43374,8.37124 -14.21875,13.156249 -16.38025,16.380252 -21.23255,27.494112 -30.53125,27.625002 -3.98047,0.056 -6.66054,-0.37464 -7.53125,-1.25 -0.96849,-0.97365 -1.48179,-13.71647 -1.84375,-24.718752 -0.42604,-12.949569 -0.86219,-16.043967 -2.65625,-19.749999 -2.61093,-5.393467 -7.89395,-9.898935 -13.90625,-11.84375 -11.57903,-3.745504 -35.6916,-6.24796 -57.625,-6.34375 -1.64501,-0.0072 -3.29208,-0.01997 -4.90625,0 z m 5.71875,11.0625 c 13.21078,-0.02476 27.69211,0.595609 40.75,1.90625 9.7143,0.97504 11.81249,1.499991 13.75,3.4375 2.46571,2.46571 3.00968,5.80395 1.125,6.96875 -0.64298,0.39738 -17.40547,0.78395 -37.25,0.84375 -38.03884,0.11462 -47.41255,0.96116 -52.75,4.71875 -3.48221,2.45149 -4.12847,5.625749 -4.25,21.562501 -0.0913,11.97074 -0.28099,17.34916 -2.09375,18.71875 -2.96014,2.23646 -5.316,1.90275 -8.40625,-1.1875 -7.31918,-7.31918 -10.10072,-31.420722 -5.1875,-41.500001 2.7282,-5.596801 8.55666,-10.197329 15.46875,-12.25 6.977925,-2.072221 21.85846,-3.18691 38.84375,-3.21875 z"
     id="rect2914"
     sodipodi:nodetypes="cssscccssssssscsscsssssssccssssssssssc" />
</svg>
