<?xml version="1.0" encoding="UTF-8" standalone="no"?>
<svg
   xmlns:dc="http://purl.org/dc/elements/1.1/"
   xmlns:cc="http://creativecommons.org/ns#"
   xmlns:rdf="http://www.w3.org/1999/02/22-rdf-syntax-ns#"
   xmlns:svg="http://www.w3.org/2000/svg"
   xmlns="http://www.w3.org/2000/svg"
   xmlns:sodipodi="http://sodipodi.sourceforge.net/DTD/sodipodi-0.dtd"
   xmlns:inkscape="http://www.inkscape.org/namespaces/inkscape"
   id="svg2"
   viewBox="0 0 700 700"
   version="1.1"
   inkscape:version="0.48.4 r9939"
   width="100%"
   height="100%"
   sodipodi:docname="wind_rose_text.svg">
  <defs
     id="defs18" />
  <sodipodi:namedview
     pagecolor="#ffffff"
     bordercolor="#666666"
     borderopacity="1"
     objecttolerance="10"
     gridtolerance="10"
     guidetolerance="10"
     inkscape:pageopacity="0"
     inkscape:pageshadow="2"
     inkscape:window-width="1467"
     inkscape:window-height="892"
     id="namedview16"
     showgrid="false"
     inkscape:zoom="0.89699734"
     inkscape:cx="189.88201"
     inkscape:cy="378.28092"
     inkscape:window-x="237"
     inkscape:window-y="84"
     inkscape:window-maximized="0"
     inkscape:current-layer="svg2" />
  <path
     id="path3254-2-2-7-1"
     style="text-indent:0;text-transform:none;block-progression:tb;color:#000000"
     d="m 348.28972,60 -44.59431,214.24483 -80.4942,-52.70921 -1.69493,1.68668 52.71691,80.21586 L 60,347.84598 v 3.83191 l 214.1415,44.40782 -53.05834,80.72948 1.68987,1.6867 80.54484,-52.73041 L 347.89747,640 h 3.83912 l 44.6041,-214.27744 80.4991,52.70432 1.68987,-1.68669 -52.73652,-80.2452 L 640,352.08064 v -3.83191 l -214.09249,-44.39803 53.0175,-80.66427 -1.69493,-1.6867 -80.52525,52.71901 -44.57959,-214.21222 h -3.83912 z m -0.0358,19.40905 v 265.55989 l -45.76891,-45.69762 4.73257,-22.72734 41.03617,-197.139817 z m 120.3966,150.6171 -67.1847,67.05852 -4.22712,-20.30588 71.411,-46.75264 z m -238.59755,1.75796 67.03113,66.90523 -20.29835,4.20892 -46.73278,-71.11382 z m 170.22844,70.73717 23.30594,4.8357 196.97162,40.84659 H 354.51582 l 45.77872,-45.68296 z M 79.444954,351.71 H 345.53717 l -45.77871,45.69275 -23.31084,-4.83571 -197.00429,-40.85639 z m 272.316496,3.27655 45.77871,45.69273 -4.73257,22.72734 -41.04597,197.17242 V 354.98655 z m 71.45348,42.02876 46.754,71.14971 -67.06706,-66.94112 20.31306,-4.20892 z m -124.66374,5.88028 4.22205,20.31079 -71.42243,46.76242 67.19939,-67.07321 z"
     inkscape:connector-curvature="0" />
  <metadata
     id="metadata14">
    <rdf:RDF>
      <cc:Work>
        <dc:format>image/svg+xml</dc:format>
        <dc:type
           rdf:resource="http://purl.org/dc/dcmitype/StillImage" />
        <cc:license
           rdf:resource="http://creativecommons.org/licenses/publicdomain/" />
        <dc:publisher>
          <cc:Agent
             rdf:about="http://openclipart.org/">
            <dc:title>Openclipart</dc:title>
          </cc:Agent>
        </dc:publisher>
        <dc:title></dc:title>
        <dc:date>2012-12-08T03:07:14</dc:date>
        <dc:description>Compass, Kompass, Wind Rose, Windrose, clip art, clipart, </dc:description>
        <dc:source>http://openclipart.org/detail/173629/simple-wind-rose-by-binleii-173629</dc:source>
        <dc:creator>
          <cc:Agent>
            <dc:title>binleii</dc:title>
          </cc:Agent>
        </dc:creator>
        <dc:subject>
          <rdf:Bag>
            <rdf:li>Compass</rdf:li>
            <rdf:li>Kompass</rdf:li>
            <rdf:li>Wind Rose</rdf:li>
            <rdf:li>Windrose</rdf:li>
            <rdf:li>clip art</rdf:li>
            <rdf:li>clipart</rdf:li>
          </rdf:Bag>
        </dc:subject>
      </cc:Work>
      <cc:License
         rdf:about="http://creativecommons.org/licenses/publicdomain/">
        <cc:permits
           rdf:resource="http://creativecommons.org/ns#Reproduction" />
        <cc:permits
           rdf:resource="http://creativecommons.org/ns#Distribution" />
        <cc:permits
           rdf:resource="http://creativecommons.org/ns#DerivativeWorks" />
      </cc:License>
    </rdf:RDF>
  </metadata>
  <g
     style="font-size:40px;font-style:normal;font-weight:normal;line-height:125%;letter-spacing:0px;word-spacing:0px;fill:#000000;fill-opacity:1;stroke:none;font-family:Sans"
     id="text3015">
    <path
       d="m 324.03711,0 12.9375,0 29.14453,35.753906 0,-27.4921872 c -4e-5,-2.9296452 -0.32817,-4.7577684 -0.98437,-5.484375 -0.86723,-0.9843292 -2.23832,-1.4765162 -4.11329,-1.4765626 l -1.65234,0 0,-1.3007812 16.59375,0 0,1.3007812 -1.6875,0 c -2.01567,4.64e-5 -3.44536,0.6094208 -4.28906,1.8281251 -0.51567,0.7500437 -0.77348,2.4609795 -0.77344,5.1328125 l 0,40.1835932 -1.26562,0 -31.42969,-38.390624 0,29.355468 c -1e-5,2.929693 0.31639,4.757816 0.94922,5.484375 0.89061,0.984377 2.2617,1.476564 4.11328,1.476563 l 1.6875,0 0,1.300781 -16.59375,0 0,-1.300781 1.65234,0 c 2.03906,10e-7 3.48046,-0.609373 4.32422,-1.828125 0.51562,-0.749996 0.77343,-2.460932 0.77344,-5.132813 l 0,-33.1523435 C 332.04101,4.640668 330.98632,3.5742628 330.25977,3.0585938 329.55664,2.5430139 328.51367,2.0625456 327.13086,1.6171875 326.45117,1.4062963 325.41992,1.3008276 324.03711,1.3007812 L 324.03711,0"
       style="font-size:72px;text-align:center;text-anchor:middle;font-family:Times New Roman;-inkscape-font-specification:Times New Roman"
       id="path3081" />
  </g>
  <g
     style="font-size:40px;font-style:normal;font-weight:normal;text-align:start;line-height:125%;letter-spacing:0px;word-spacing:0px;text-anchor:start;fill:#000000;fill-opacity:1;stroke:none;font-family:Sans"
     id="text3015-6">
    <path
       d="m 666.90228,328.76562 0,18.84375 10.47657,0 c 2.71872,3e-5 4.53512,-0.41012 5.44921,-1.23046 1.21872,-1.0781 1.89841,-2.97654 2.03907,-5.69532 l 1.30078,0 0,16.59375 -1.30078,0 c -0.32816,-2.32029 -0.65629,-3.80857 -0.98438,-4.46484 -0.42191,-0.82029 -1.11331,-1.46482 -2.07422,-1.93359 -0.96096,-0.46873 -2.43752,-0.70311 -4.42968,-0.70313 l -10.47657,0 0,15.71484 c -10e-6,2.10939 0.0937,3.39845 0.28125,3.86719 0.18749,0.44532 0.51561,0.8086 0.98438,1.08985 0.46873,0.25781 1.35936,0.38672 2.67187,0.38671 l 8.08594,0 c 2.69528,10e-6 4.65231,-0.18749 5.87109,-0.5625 1.21872,-0.37499 2.39059,-1.11327 3.51563,-2.21484 1.45309,-1.45312 2.94137,-3.64452 4.46484,-6.57422 l 1.40625,0 -4.11328,11.95313 -36.73828,0 0,-1.30078 1.6875,0 c 1.125,0 2.1914,-0.26953 3.19922,-0.8086 0.74999,-0.375 1.2539,-0.93749 1.51172,-1.6875 0.28124,-0.74999 0.42186,-2.28515 0.42187,-4.60547 l 0,-30.97265 c -10e-6,-3.0234 -0.30469,-4.88668 -0.91406,-5.58985 -0.84376,-0.93745 -2.25,-1.4062 -4.21875,-1.40625 l -1.6875,0 0,-1.30078 36.73828,0 0.52735,10.44141 -1.3711,0 c -0.49222,-2.50777 -1.043,-4.23043 -1.65234,-5.16797 -0.58597,-0.93746 -1.46488,-1.6523 -2.63672,-2.14453 -0.93753,-0.35152 -2.58988,-0.5273 -4.95703,-0.52735 l -13.07813,0"
       style="font-size:72px;font-family:Times New Roman;-inkscape-font-specification:Times New Roman"
       id="path3090" />
  </g>
  <g
     style="font-size:40px;font-style:normal;font-weight:normal;line-height:125%;letter-spacing:0px;word-spacing:0px;fill:#000000;fill-opacity:1;stroke:none;font-family:Sans"
     id="text3015-61">
    <path
       d="m 362.67383,650.14844 0,16.48828 -1.30078,0 c -0.42191,-3.16403 -1.18363,-5.68356 -2.28516,-7.5586 -1.07815,-1.87495 -2.62503,-3.36323 -4.64062,-4.46484 -2.01565,-1.10152 -4.10159,-1.6523 -6.25782,-1.65234 -2.43751,4e-5 -4.45314,0.75004 -6.04687,2.25 -1.59376,1.4766 -2.39064,3.1641 -2.39063,5.0625 -1e-5,1.45316 0.5039,2.77738 1.51172,3.97265 1.45311,1.75785 4.91014,4.1016 10.3711,7.03125 4.45309,2.39065 7.48825,4.2305 9.10546,5.51953 1.6406,1.26565 2.8945,2.76565 3.76172,4.5 0.89059,1.7344 1.3359,3.5508 1.33594,5.44922 -4e-5,3.60939 -1.40628,6.72657 -4.21875,9.35157 C 358.83005,698.69922 355.2324,700 350.82617,700 c -1.38283,0 -2.68361,-0.10547 -3.90234,-0.31641 -0.72658,-0.11718 -2.2383,-0.53906 -4.53516,-1.26562 -2.27345,-0.75 -3.71485,-1.125 -4.32422,-1.125 -0.58594,0 -1.05469,0.17578 -1.40625,0.52734 -0.32813,0.35157 -0.57422,1.07813 -0.73828,2.17969 l -1.30078,0 0,-16.34766 1.30078,0 c 0.60937,3.42189 1.42968,5.98829 2.46094,7.69922 1.03124,1.68751 2.60155,3.09376 4.71094,4.21875 2.13279,1.125 4.46482,1.6875 6.99609,1.6875 2.92966,0 5.23826,-0.77343 6.92578,-2.32031 1.71091,-1.54687 2.56638,-3.37499 2.56641,-5.48438 -3e-5,-1.17186 -0.32816,-2.35545 -0.98438,-3.55078 -0.63284,-1.19529 -1.62893,-2.30857 -2.98828,-3.33984 -0.91409,-0.70311 -3.41018,-2.19139 -7.48828,-4.46484 -4.07814,-2.29686 -6.98439,-4.12498 -8.71875,-5.48438 -1.71094,-1.35935 -3.01172,-2.85934 -3.90234,-4.5 -0.89063,-1.64059 -1.33595,-3.44528 -1.33594,-5.41406 -10e-6,-3.42184 1.31249,-6.36324 3.9375,-8.82422 2.62499,-2.48433 5.96483,-3.72651 10.01953,-3.72656 2.53123,5e-5 5.21482,0.62114 8.05078,1.86328 1.31247,0.58598 2.23825,0.87895 2.77735,0.8789 0.60934,5e-5 1.10153,-0.17573 1.47656,-0.52734 0.3984,-0.37495 0.71481,-1.11323 0.94922,-2.21484 l 1.30078,0"
       style="font-size:72px;text-align:center;text-anchor:middle;font-family:Times New Roman;-inkscape-font-specification:Times New Roman"
       id="path3087" />
  </g>
  <g
     style="font-size:40px;font-style:normal;font-weight:normal;line-height:125%;letter-spacing:0px;word-spacing:0px;fill:#000000;fill-opacity:1;stroke:none;font-family:Sans"
     id="text3015-8">
    <path
       d="m 23.800781,325.07422 c 6.187468,5e-5 11.542931,2.35551 16.066406,7.0664 4.546829,4.68754 6.820264,10.54691 6.820313,17.57813 -4.9e-5,7.2422 -2.285203,13.25392 -6.855469,18.03516 -4.57035,4.78125 -10.101595,7.17187 -16.59375,7.17187 -6.562519,0 -12.082045,-2.33203 -16.5585935,-6.99609 C 2.2265577,363.26564 -2.53125e-6,357.23049 0,349.82422 c -2.53125e-6,-7.57028 2.5781199,-13.74606 7.734375,-18.52735 4.476548,-4.14839 9.832011,-6.2226 16.066406,-6.22265 m -0.667969,2.5664 c -4.265646,5e-5 -7.687517,1.58208 -10.265624,4.7461 -3.2109502,3.93754 -4.8164173,9.70316 -4.8164067,17.29687 -1.06e-5,7.78127 1.6640502,13.76955 4.9921877,17.96485 2.554669,3.1875 5.929666,4.78125 10.125,4.78125 4.476532,0 8.167935,-1.74609 11.074218,-5.23828 2.929648,-3.49218 4.394491,-8.99999 4.394532,-16.52344 -4.1e-5,-8.15622 -1.605509,-14.23825 -4.816407,-18.2461 -2.578158,-3.18745 -6.140655,-4.7812 -10.6875,-4.78125"
       style="font-size:72px;text-align:end;text-anchor:end;font-family:Times New Roman;-inkscape-font-specification:Times New Roman"
       id="path3084" />
  </g>
</svg>
