<?xml version="1.0" encoding="UTF-8" standalone="no"?>
<!-- Created with Inkscape (http://www.inkscape.org/) -->

<svg
   xmlns:dc="http://purl.org/dc/elements/1.1/"
   xmlns:cc="http://creativecommons.org/ns#"
   xmlns:rdf="http://www.w3.org/1999/02/22-rdf-syntax-ns#"
   xmlns:svg="http://www.w3.org/2000/svg"
   xmlns="http://www.w3.org/2000/svg"
   xmlns:xlink="http://www.w3.org/1999/xlink"
   xmlns:sodipodi="http://sodipodi.sourceforge.net/DTD/sodipodi-0.dtd"
   xmlns:inkscape="http://www.inkscape.org/namespaces/inkscape"
   width="210mm"
   height="297mm"
   id="svg2"
   version="1.1"
   inkscape:version="0.48.4 r9939"
   sodipodi:docname="qwat_final.svg">
  <defs
     id="defs4">
    <linearGradient
       id="linearGradient6992">
      <stop
         style="stop-color:#ffffff;stop-opacity:1;"
         offset="0"
         id="stop6994" />
      <stop
         id="stop7000"
         offset="0.99999994"
         style="stop-color:#747474;stop-opacity:1;" />
      <stop
         style="stop-color:#707070;stop-opacity:1;"
         offset="1"
         id="stop6996" />
    </linearGradient>
    <linearGradient
       inkscape:collect="always"
       id="linearGradient5646">
      <stop
         style="stop-color:#ffffff;stop-opacity:1;"
         offset="0"
         id="stop5648" />
      <stop
         style="stop-color:#ffffff;stop-opacity:0;"
         offset="1"
         id="stop5650" />
    </linearGradient>
    <inkscape:path-effect
       effect="skeletal"
       id="path-effect4841"
       is_visible="true"
       pattern="M 0,5 C 0,2.24 2.24,0 5,0 7.76,0 10,2.24 10,5 10,7.76 7.76,10 5,10 2.24,10 0,7.76 0,5 z"
       copytype="single_stretched"
       prop_scale="1"
       scale_y_rel="false"
       spacing="0"
       normal_offset="0"
       tang_offset="0"
       prop_units="false"
       vertical_pattern="false"
       fuse_tolerance="0" />
    <marker
       inkscape:stockid="Arrow2Mend"
       orient="auto"
       refY="0.0"
       refX="0.0"
       id="Arrow2Mend"
       style="overflow:visible;">
      <path
         id="path3859"
         style="fill-rule:evenodd;stroke-width:0.62500000;stroke-linejoin:round;"
         d="M 8.7185878,4.0337352 L -2.2072895,0.016013256 L 8.7185884,-4.0017078 C 6.9730900,-1.6296469 6.9831476,1.6157441 8.7185878,4.0337352 z "
         transform="scale(0.6) rotate(180) translate(0,0)" />
    </marker>
    <marker
       inkscape:stockid="Arrow1Lend"
       orient="auto"
       refY="0.0"
       refX="0.0"
       id="Arrow1Lend"
       style="overflow:visible;">
      <path
         id="path3835"
         d="M 0.0,0.0 L 5.0,-5.0 L -12.5,0.0 L 5.0,5.0 L 0.0,0.0 z "
         style="fill-rule:evenodd;stroke:#000000;stroke-width:1.0pt;"
         transform="scale(0.8) rotate(180) translate(12.5,0)" />
    </marker>
    <marker
       inkscape:stockid="Arrow1Mend"
       orient="auto"
       refY="0.0"
       refX="0.0"
       id="Arrow1Mend"
       style="overflow:visible;">
      <path
         id="path3841"
         d="M 0.0,0.0 L 5.0,-5.0 L -12.5,0.0 L 5.0,5.0 L 0.0,0.0 z "
         style="fill-rule:evenodd;stroke:#000000;stroke-width:1.0pt;"
         transform="scale(0.4) rotate(180) translate(10,0)" />
    </marker>
    <marker
       inkscape:stockid="Arrow2Mend"
       orient="auto"
       refY="0"
       refX="0"
       id="Arrow2Mend-0"
       style="overflow:visible">
      <path
         inkscape:connector-curvature="0"
         id="path3859-8"
         style="fill-rule:evenodd;stroke-width:0.625;stroke-linejoin:round"
         d="M 8.7185878,4.0337352 -2.2072895,0.01601326 8.7185884,-4.0017078 c -1.7454984,2.3720609 -1.7354408,5.6174519 -6e-7,8.035443 z"
         transform="scale(-0.6,-0.6)" />
    </marker>
    <marker
       inkscape:stockid="Arrow2Mend"
       orient="auto"
       refY="0"
       refX="0"
       id="Arrow2Mend-5"
       style="overflow:visible">
      <path
         inkscape:connector-curvature="0"
         id="path3859-82"
         style="fill-rule:evenodd;stroke-width:0.625;stroke-linejoin:round"
         d="M 8.7185878,4.0337352 -2.2072895,0.01601326 8.7185884,-4.0017078 c -1.7454984,2.3720609 -1.7354408,5.6174519 -6e-7,8.035443 z"
         transform="scale(-0.6,-0.6)" />
    </marker>
    <marker
       inkscape:stockid="Arrow2Mend"
       orient="auto"
       refY="0"
       refX="0"
       id="marker5424"
       style="overflow:visible">
      <path
         inkscape:connector-curvature="0"
         id="path5426"
         style="fill-rule:evenodd;stroke-width:0.625;stroke-linejoin:round"
         d="M 8.7185878,4.0337352 -2.2072895,0.01601326 8.7185884,-4.0017078 c -1.7454984,2.3720609 -1.7354408,5.6174519 -6e-7,8.035443 z"
         transform="scale(-0.6,-0.6)" />
    </marker>
    <mask
       maskUnits="userSpaceOnUse"
       id="mask4918">
      <rect
         style="fill:#b4b4b4;fill-opacity:1;stroke:#a7ac93;stroke-width:2;stroke-miterlimit:4;stroke-opacity:1;stroke-dasharray:none"
         id="rect4920"
         width="139.43105"
         height="139.43105"
         x="3177.8398"
         y="129.49126"
         rx="2.8723404"
         ry="2.0032723" />
    </mask>
    <mask
       maskUnits="userSpaceOnUse"
       id="mask4918-3">
      <rect
         style="fill:#b4b4b4;fill-opacity:1;stroke:#a7ac93;stroke-width:2;stroke-miterlimit:4;stroke-opacity:1;stroke-dasharray:none"
         id="rect4920-7"
         width="139.43105"
         height="139.43105"
         x="3177.8398"
         y="129.49126"
         rx="2.8723404"
         ry="2.0032723" />
    </mask>
    <mask
       maskUnits="userSpaceOnUse"
       id="mask4918-9">
      <rect
         style="fill:#b4b4b4;fill-opacity:1;stroke:#a7ac93;stroke-width:2;stroke-miterlimit:4;stroke-opacity:1;stroke-dasharray:none"
         id="rect4920-5"
         width="139.43105"
         height="139.43105"
         x="3177.8398"
         y="129.49126"
         rx="2.8723404"
         ry="2.0032723" />
    </mask>
    <mask
       maskUnits="userSpaceOnUse"
       id="mask4918-3-7">
      <rect
         style="fill:#b4b4b4;fill-opacity:1;stroke:#a7ac93;stroke-width:2;stroke-miterlimit:4;stroke-opacity:1;stroke-dasharray:none"
         id="rect4920-7-6"
         width="139.43105"
         height="139.43105"
         x="3177.8398"
         y="129.49126"
         rx="2.8723404"
         ry="2.0032723" />
    </mask>
    <mask
       maskUnits="userSpaceOnUse"
       id="mask4918-38">
      <rect
         style="fill:#b4b4b4;fill-opacity:1;stroke:#a7ac93;stroke-width:2;stroke-miterlimit:4;stroke-opacity:1;stroke-dasharray:none"
         id="rect4920-9"
         width="139.43105"
         height="139.43105"
         x="3177.8398"
         y="129.49126"
         rx="2.8723404"
         ry="2.0032723" />
    </mask>
    <mask
       maskUnits="userSpaceOnUse"
       id="mask4918-3-74">
      <rect
         style="fill:#b4b4b4;fill-opacity:1;stroke:#a7ac93;stroke-width:2;stroke-miterlimit:4;stroke-opacity:1;stroke-dasharray:none"
         id="rect4920-7-5"
         width="139.43105"
         height="139.43105"
         x="3177.8398"
         y="129.49126"
         rx="2.8723404"
         ry="2.0032723" />
    </mask>
    <mask
       maskUnits="userSpaceOnUse"
       id="mask4918-8">
      <rect
         style="fill:#b4b4b4;fill-opacity:1;stroke:#a7ac93;stroke-width:2;stroke-miterlimit:4;stroke-opacity:1;stroke-dasharray:none"
         id="rect4920-8"
         width="139.43105"
         height="139.43105"
         x="3177.8398"
         y="129.49126"
         rx="2.8723404"
         ry="2.0032723" />
    </mask>
    <mask
       maskUnits="userSpaceOnUse"
       id="mask4918-3-2">
      <rect
         style="fill:#b4b4b4;fill-opacity:1;stroke:#a7ac93;stroke-width:2;stroke-miterlimit:4;stroke-opacity:1;stroke-dasharray:none"
         id="rect4920-7-51"
         width="139.43105"
         height="139.43105"
         x="3177.8398"
         y="129.49126"
         rx="2.8723404"
         ry="2.0032723" />
    </mask>
    <mask
       maskUnits="userSpaceOnUse"
       id="mask4918-3-8">
      <rect
         style="fill:#b4b4b4;fill-opacity:1;stroke:#a7ac93;stroke-width:2;stroke-miterlimit:4;stroke-opacity:1;stroke-dasharray:none"
         id="rect4920-7-50"
         width="139.43105"
         height="139.43105"
         x="3177.8398"
         y="129.49126"
         rx="2.8723404"
         ry="2.0032723" />
    </mask>
    <filter
       color-interpolation-filters="sRGB"
       inkscape:collect="always"
       id="filter5581-5-3-5">
      <feGaussianBlur
         inkscape:collect="always"
         stdDeviation="2.3403143"
         id="feGaussianBlur5583-3-9-0" />
    </filter>
    <filter
       color-interpolation-filters="sRGB"
       inkscape:collect="always"
       id="filter4092-0-3-9-7-8-1-0">
      <feGaussianBlur
         inkscape:collect="always"
         stdDeviation="4.0509631"
         id="feGaussianBlur4094-8-3-2-3-3-2-7" />
    </filter>
    <mask
       maskUnits="userSpaceOnUse"
       id="mask4918-4">
      <rect
         style="fill:#b4b4b4;fill-opacity:1;stroke:#a7ac93;stroke-width:2;stroke-miterlimit:4;stroke-opacity:1;stroke-dasharray:none"
         id="rect4920-0"
         width="139.43105"
         height="139.43105"
         x="3177.8398"
         y="129.49126"
         rx="2.8723404"
         ry="2.0032723" />
    </mask>
    <mask
       maskUnits="userSpaceOnUse"
       id="mask4918-0">
      <rect
         style="fill:#b4b4b4;fill-opacity:1;stroke:#a7ac93;stroke-width:2;stroke-miterlimit:4;stroke-opacity:1;stroke-dasharray:none"
         id="rect4920-54"
         width="139.43105"
         height="139.43105"
         x="3177.8398"
         y="129.49126"
         rx="2.8723404"
         ry="2.0032723" />
    </mask>
    <mask
       maskUnits="userSpaceOnUse"
       id="mask4918-6">
      <rect
         style="fill:#b4b4b4;fill-opacity:1;stroke:#a7ac93;stroke-width:2;stroke-miterlimit:4;stroke-opacity:1;stroke-dasharray:none"
         id="rect4920-3"
         width="139.43105"
         height="139.43105"
         x="3177.8398"
         y="129.49126"
         rx="2.8723404"
         ry="2.0032723" />
    </mask>
    <mask
       maskUnits="userSpaceOnUse"
       id="mask4918-3-80">
      <rect
         style="fill:#b4b4b4;fill-opacity:1;stroke:#a7ac93;stroke-width:2;stroke-miterlimit:4;stroke-opacity:1;stroke-dasharray:none"
         id="rect4920-7-2"
         width="139.43105"
         height="139.43105"
         x="3177.8398"
         y="129.49126"
         rx="2.8723404"
         ry="2.0032723" />
    </mask>
    <clipPath
       clipPathUnits="userSpaceOnUse"
       id="clipPath5319">
      <rect
         style="fill:none;stroke:#367ea4;stroke-width:4.23448372;stroke-miterlimit:4;stroke-opacity:1;stroke-dasharray:none"
         id="rect5321"
         width="295.20926"
         height="295.20926"
         x="-809.27911"
         y="530.24286"
         rx="6.0814395"
         ry="4.2414122"
         inkscape:export-filename="/home/sbe/qwat.png"
         inkscape:export-xdpi="90"
         inkscape:export-ydpi="90" />
    </clipPath>
    <clipPath
       clipPathUnits="userSpaceOnUse"
       id="clipPath5319-1">
      <rect
         style="fill:none;stroke:#367ea4;stroke-width:4.23448372;stroke-miterlimit:4;stroke-opacity:1;stroke-dasharray:none"
         id="rect5321-1"
         width="295.20926"
         height="295.20926"
         x="-809.27911"
         y="530.24286"
         rx="6.0814395"
         ry="4.2414122"
         inkscape:export-filename="/home/sbe/qwat.png"
         inkscape:export-xdpi="90"
         inkscape:export-ydpi="90" />
    </clipPath>
    <clipPath
       clipPathUnits="userSpaceOnUse"
       id="clipPath5319-1-0">
      <rect
         style="fill:none;stroke:#367ea4;stroke-width:4.23448372;stroke-miterlimit:4;stroke-opacity:1;stroke-dasharray:none"
         id="rect5321-1-6"
         width="295.20926"
         height="295.20926"
         x="-809.27911"
         y="530.24286"
         rx="6.0814395"
         ry="4.2414122"
         inkscape:export-filename="/home/sbe/qwat.png"
         inkscape:export-xdpi="90"
         inkscape:export-ydpi="90" />
    </clipPath>
    <linearGradient
       inkscape:collect="always"
       xlink:href="#linearGradient5646"
       id="linearGradient5652"
       x1="-1325.0049"
       y1="-1938.6414"
       x2="-1195.6929"
       y2="-1938.6414"
       gradientUnits="userSpaceOnUse" />
    <linearGradient
       inkscape:collect="always"
       xlink:href="#linearGradient5646-1"
       id="linearGradient5652-9"
       x1="-1325.0049"
       y1="-1938.6414"
       x2="-1195.6929"
       y2="-1938.6414"
       gradientUnits="userSpaceOnUse" />
    <linearGradient
       inkscape:collect="always"
       id="linearGradient5646-1">
      <stop
         style="stop-color:#ffffff;stop-opacity:1;"
         offset="0"
         id="stop5648-5" />
      <stop
         style="stop-color:#ffffff;stop-opacity:0;"
         offset="1"
         id="stop5650-8" />
    </linearGradient>
    <linearGradient
       gradientTransform="matrix(1.8630137,0,0,1.5945946,2917.5512,5211.5567)"
       y2="-1938.6414"
       x2="-1195.6929"
       y1="-1938.6414"
       x1="-1325.0049"
       gradientUnits="userSpaceOnUse"
       id="linearGradient5669"
       xlink:href="#linearGradient5646-1"
       inkscape:collect="always" />
    <clipPath
       clipPathUnits="userSpaceOnUse"
       id="clipPath5319-4">
      <rect
         style="fill:none;stroke:#367ea4;stroke-width:4.23448372;stroke-miterlimit:4;stroke-opacity:1;stroke-dasharray:none"
         id="rect5321-15"
         width="295.20926"
         height="295.20926"
         x="-809.27911"
         y="530.24286"
         rx="6.0814395"
         ry="4.2414122"
         inkscape:export-filename="/home/sbe/qwat.png"
         inkscape:export-xdpi="90"
         inkscape:export-ydpi="90" />
    </clipPath>
  </defs>
  <sodipodi:namedview
     id="base"
     pagecolor="#ffffff"
     bordercolor="#666666"
     borderopacity="1.0"
     inkscape:pageopacity="0.0"
     inkscape:pageshadow="2"
     inkscape:zoom="1"
     inkscape:cx="2702.3372"
     inkscape:cy="2606.9302"
     inkscape:document-units="px"
     inkscape:current-layer="layer1"
     showgrid="false"
     inkscape:window-width="1920"
     inkscape:window-height="1180"
     inkscape:window-x="1918"
     inkscape:window-y="-3"
     inkscape:window-maximized="1"
     showborder="false"
     inkscape:showpageshadow="false"
     showguides="true"
     inkscape:guide-bbox="true"
     guidetolerance="10">
    <inkscape:grid
       type="xygrid"
       id="grid4660"
       empspacing="5"
       visible="true"
       enabled="true"
       snapvisiblegridlinesonly="true" />
  </sodipodi:namedview>
  <metadata
     id="metadata7">
    <rdf:RDF>
      <cc:Work
         rdf:about="">
        <dc:format>image/svg+xml</dc:format>
        <dc:type
           rdf:resource="http://purl.org/dc/dcmitype/StillImage" />
        <dc:title />
      </cc:Work>
    </rdf:RDF>
  </metadata>
  <g
     inkscape:label="Calque 1"
     inkscape:groupmode="layer"
     id="layer1">
    <g
       id="g4073-2-8-5-8-0-8-9"
       style="fill:#4a4a4a;fill-opacity:0.97647059;stroke:none;filter:url(#filter4092-0-3-9-7-8-1-0)"
       transform="matrix(2.2018089,0,0,2.2149961,1139.0124,245.92065)"
       inkscape:export-filename="/home/sbe/qwat_logo.png"
       inkscape:export-xdpi="179.93927"
       inkscape:export-ydpi="179.93927">
      <path
         sodipodi:nodetypes="ssscs"
         inkscape:connector-curvature="0"
         id="path3073-8-5-4-1-9-7-8-6-8-3-3-4"
         d="m 603.85693,-821.15631 c 0,35.64481 -28.89583,64.54063 -64.54063,64.54063 -35.64481,0 -64.54063,-28.89582 -64.54063,-64.54063 0,-35.6448 46.28655,-70.48521 64.54063,-102.10221 13.89441,24.06583 64.54063,66.45741 64.54063,102.10221 z"
         style="fill:#4a4a4a;fill-opacity:0.97647059;stroke:none" />
      <path
         sodipodi:nodetypes="cscccccsccccccssccsccsccsccc"
         d="m 718.19567,-800.21836 c 0,-2.00202 -3.57937,-2.00202 -4.32508,-2.00202 -4.92162,0 -6.71132,1.66835 -7.90444,3.42012 l -21.0288,32.53291 -8.79929,14.43125 c -1.04398,-2.25227 -4.0268,-6.84025 -5.66733,-9.42619 l -24.45903,-37.87164 c -1.93884,-3.08645 -5.66735,-3.08645 -8.65016,-3.08645 -2.83365,0 -6.71132,0 -8.79928,3.16987 l -18.7917,29.1962 c -6.41304,9.9267 -9.54499,14.76493 -10.88726,17.85138 l -0.14913,0 c -1.34227,-3.25328 -6.11477,-10.67747 -10.88726,-18.01822 l -18.64254,-28.86253 c -2.08797,-3.3367 -5.36907,-3.3367 -8.94844,-3.3367 -2.23711,0 -5.5182,0 -5.5182,2.00202 0,0.33367 0.29828,0.83418 0.44741,1.08443 l 33.55661,51.30189 c 2.08796,3.25329 5.66735,3.25329 8.65015,3.25329 2.9828,0 6.71133,0 8.79928,-3.33671 l 18.79171,-29.19619 c 7.15874,-11.01112 7.90823,-14.20227 11.41143,-14.20227 3.50319,0 4.69573,4.44241 10.36307,13.20125 l 19.38827,30.11379 c 2.23709,3.42013 5.66732,3.42013 9.09756,3.42013 3.28109,0 6.86046,0 8.94843,-3.25329 l 33.40745,-50.96822 c 0.29829,-0.41709 0.59657,-1.00102 0.59657,-1.4181"
         style="font-size:111.185112px;font-style:normal;font-variant:normal;font-weight:normal;font-stretch:normal;text-align:start;line-height:125%;letter-spacing:0px;word-spacing:0px;writing-mode:lr-tb;text-anchor:start;fill:#4a4a4a;fill-opacity:0.97647059;stroke:none;font-family:Latin Modern Sans Quotation;-inkscape-font-specification:Latin Modern Sans Quotation"
         id="path3946-6-0-0-8-0-0-8-8-0-8"
         inkscape:connector-curvature="0" />
      <path
         sodipodi:nodetypes="cccsccssscccsccccscc"
         d="m 773.6397,-746.99787 c 0,-0.41708 -0.47626,-1.25127 -0.71438,-1.58494 l -33.81422,-51.21846 c -1.78596,-2.58595 -3.09567,-3.25329 -7.85823,-3.25329 -2.73847,0 -5.71508,0 -7.73917,3.08646 l -33.81421,51.38529 c -0.35719,0.50051 -0.71439,1.00102 -0.71439,1.58494 0,1.83519 2.73848,1.83519 3.69099,1.83519 1.6669,0 4.76258,-0.0834 6.78665,-3.16987 l 8.09637,-12.34582 45.24437,0 6.19133,9.34279 c 3.69098,5.67239 4.04819,6.1729 9.88232,6.1729 2.26222,0 4.76257,0 4.76257,-1.83519 m -24.52722,-19.18606 -37.98145,0 16.81349,-25.76815 c 0,0 0.87236,-1.97399 2.23677,-1.97204 1.35106,0.002 2.20514,1.94482 2.20514,1.94482 l 16.72605,25.79537"
         style="font-size:111.185112px;font-style:normal;font-variant:normal;font-weight:normal;font-stretch:normal;text-align:start;line-height:125%;letter-spacing:0px;word-spacing:0px;writing-mode:lr-tb;text-anchor:start;fill:#4a4a4a;fill-opacity:0.97647059;stroke:none;font-family:Latin Modern Sans Quotation;-inkscape-font-specification:Latin Modern Sans Quotation"
         id="path3948-9-6-0-4-5-9-6-7-3-8"
         inkscape:connector-curvature="0" />
      <path
         d="m 836.22432,-799.21735 c 0,-2.75278 -3.40381,-2.75278 -4.99226,-2.75278 l -81.3511,0 c -1.58844,0 -4.99226,0 -4.99226,2.75278 0,2.75279 3.40382,2.75279 4.99226,2.75279 l 35.39965,0 0,47.63151 c 0,2.83619 0.90768,3.67037 4.99226,3.67037 l 0.68076,0 c 3.85764,0 4.99225,-0.66734 4.99225,-3.67037 l 0,-47.63151 35.28618,0 c 1.58845,0 4.99226,0 4.99226,-2.75279"
         style="font-size:111.185112px;font-style:normal;font-variant:normal;font-weight:normal;font-stretch:normal;text-align:start;line-height:125%;letter-spacing:0px;word-spacing:0px;writing-mode:lr-tb;text-anchor:start;fill:#4a4a4a;fill-opacity:0.97647059;stroke:none;font-family:Latin Modern Sans Quotation;-inkscape-font-specification:Latin Modern Sans Quotation"
         id="path3950-5-5-0-7-1-6-6-7-5-9"
         inkscape:connector-curvature="0" />
      <path
         sodipodi:nodetypes="sssss"
         inkscape:connector-curvature="0"
         id="path4040-8-6-3-9-7-2-3-0"
         d="m 509.54587,-852.92405 c 5.16648,2.63358 -1.2107,10.82861 -6.47786,21.16158 -5.26716,10.33297 -7.42973,18.89098 -12.59621,16.2574 -5.16648,-2.63358 -5.08487,-13.14504 0.18229,-23.47801 5.26716,-10.33296 13.72529,-16.57455 18.89178,-13.94097 z"
         style="fill:#4a4a4a;fill-opacity:0.97647059;stroke:none" />
    </g>
    <path
       style="font-size:111.185112px;font-style:normal;font-variant:normal;font-weight:normal;font-stretch:normal;text-align:start;line-height:125%;letter-spacing:0px;word-spacing:0px;writing-mode:lr-tb;text-anchor:start;fill:#4a4a4a;fill-opacity:0.97647059;stroke:none;filter:url(#filter5581-5-3-5);font-family:Latin Modern Sans Quotation;-inkscape-font-specification:Latin Modern Sans Quotation"
       d="m 1742.2397,-1336.3432 c -4.15,0.053 -9.0312,0.4879 -9.0312,3.9063 0,0.6511 0.584,1.6054 0.875,2.0937 l 29.8313,45.6125 c 4.3054,8.38 32.9156,9.6906 27.0301,0.58 l -29.5176,-45.6925 c -4.0745,-6.5112 -10.484,-6.5 -17.4688,-6.5 -0.5457,0 -1.1259,-0.01 -1.7188,0 z"
       id="path3946-6-0-4-6-4-93-1-6-9-6-4"
       inkscape:connector-curvature="0"
       sodipodi:nodetypes="ssccccss"
       transform="matrix(1.494334,0,0,1.5032839,-251.61458,506.60599)"
       inkscape:export-filename="/home/sbe/qwat_logo.png"
       inkscape:export-xdpi="179.93927"
       inkscape:export-ydpi="179.93927" />
    <path
       style="fill:#e9f5ff;fill-opacity:1;stroke:none"
       d="m 2475.7821,-1591.6933 c 0,85.3952 -68.8148,154.6224 -153.7016,154.6224 -84.8872,0 -153.7014,-69.2272 -153.7014,-154.6224 0,-85.3954 110.2296,-168.8632 153.7014,-244.6094 33.0888,57.6553 153.7016,159.214 153.7016,244.6094 z"
       id="path3073-8-5-4-1-1-4-3-7-30-5-9-8"
       inkscape:connector-curvature="0"
       sodipodi:nodetypes="ssscs"
       inkscape:export-filename="/home/sbe/qwat_logo.png"
       inkscape:export-xdpi="179.93927"
       inkscape:export-ydpi="179.93927" />
    <path
       style="fill:#8ebfd9;fill-opacity:1;stroke:none"
       d="m 2456.4562,-1597.3502 c 0,74.6579 -60.162,135.1807 -134.3757,135.1807 -74.2141,0 -134.3765,-60.5228 -134.3765,-135.1807 0,-74.6582 96.3704,-147.6321 134.3765,-213.8543 28.9286,50.4063 134.3757,139.1961 134.3757,213.8543 z"
       id="path3073-8-5-4-1-1-4-9-1-7-0-0"
       inkscape:connector-curvature="0"
       sodipodi:nodetypes="ssscs"
       inkscape:export-filename="/home/sbe/qwat_logo.png"
       inkscape:export-xdpi="179.93927"
       inkscape:export-ydpi="179.93927" />
    <path
       style="font-size:111.185112px;font-style:normal;font-variant:normal;font-weight:normal;font-stretch:normal;text-align:start;line-height:125%;letter-spacing:0px;word-spacing:0px;writing-mode:lr-tb;text-anchor:start;fill:#367ea4;fill-opacity:1;stroke:none;font-family:Latin Modern Sans Quotation;-inkscape-font-specification:Latin Modern Sans Quotation"
       d="m 2342.9077,-1511.3166 c -6.2017,0.08 -13.4959,0.7335 -13.4959,5.872 0,0.9791 0.8727,2.4134 1.3079,3.1477 l 44.5775,68.5682 c 6.4337,12.5978 49.1866,14.5677 40.392,0.8723 l -44.109,-68.6888 c -6.0886,-9.7884 -15.6666,-9.7714 -26.1043,-9.7714 -0.8157,0 -1.6826,-0.046 -2.5682,0 z"
       id="path3946-6-0-4-6-4-93-0-8-3-2"
       inkscape:connector-curvature="0"
       sodipodi:nodetypes="ssccccss"
       inkscape:export-filename="/home/sbe/qwat_logo.png"
       inkscape:export-xdpi="179.93927"
       inkscape:export-ydpi="179.93927" />
    <path
       sodipodi:type="arc"
       style="fill:#8ebfd9;fill-opacity:1;stroke:#367ea4;stroke-width:9.34165573;stroke-miterlimit:4;stroke-opacity:1;stroke-dasharray:none"
       id="path3073-8-5-4-01-4-7-5-9-7-7"
       sodipodi:cx="466.02994"
       sodipodi:cy="-466.89545"
       sodipodi:rx="124.27465"
       sodipodi:ry="124.27465"
       d="m 590.30459,-466.89545 a 124.27465,124.27465 0 1 1 -248.5493,0 124.27465,124.27465 0 1 1 248.5493,0 z"
       transform="matrix(0.91785233,0,0,0.92334956,1893.4002,-1162.559)"
       inkscape:export-filename="/home/sbe/qwat_logo.png"
       inkscape:export-xdpi="179.93927"
       inkscape:export-ydpi="179.93927" />
    <g
       id="g4553"
       style="stroke:#ffffff;stroke-width:0.47901684;stroke-opacity:0.48430493"
       transform="matrix(4.1327116,0,0,4.1574634,-1062.7535,9963.8292)"
       inkscape:export-filename="/home/sbe/qwat_logo.png"
       inkscape:export-xdpi="179.93927"
       inkscape:export-ydpi="179.93927">
      <path
         inkscape:export-ydpi="49.59"
         inkscape:export-xdpi="49.59"
         inkscape:export-filename="/home/sbe/qwat.png"
         sodipodi:nodetypes="cscccccsccccccssccsccsccsccc"
         d="m 914.3372,-2769.1259 c 0,-1.0665 -1.9069,-1.0665 -2.3042,-1.0665 -2.6222,0 -3.5757,0.8888 -4.2113,1.8222 l -11.2036,17.3328 -4.6882,7.6886 c -0.5562,-1.2001 -2.1454,-3.6444 -3.0194,-5.0221 l -13.0311,-20.177 c -1.033,-1.6445 -3.0195,-1.6445 -4.6085,-1.6445 -1.5099,0 -3.5757,0 -4.6882,1.6889 l -10.0118,15.5549 c -3.4166,5.2888 -5.0853,7.8665 -5.8004,9.5109 l -0.08,0 c -0.7151,-1.7332 -3.2578,-5.6887 -5.8005,-9.5997 l -9.9323,-15.3773 c -1.1124,-1.7777 -2.8605,-1.7777 -4.7674,-1.7777 -1.192,0 -2.94002,0 -2.94002,1.0665 0,0.1779 0.15888,0.4445 0.23832,0.578 l 17.8782,27.3324 c 1.1123,1.7333 3.0194,1.7333 4.6086,1.7333 1.5891,0 3.5756,0 4.6879,-1.7778 l 10.0118,-15.555 c 3.814,-5.8665 4.2133,-7.5667 6.0798,-7.5667 1.8664,0 2.5017,2.3668 5.5212,7.0333 l 10.3296,16.0439 c 1.1919,1.8223 3.0194,1.8223 4.847,1.8223 1.7479,0 3.655,0 4.7675,-1.7333 l 17.7986,-27.1547 c 0.159,-0.2222 0.3179,-0.5334 0.3179,-0.7557"
         style="font-size:111.185112px;font-style:normal;font-variant:normal;font-weight:normal;font-stretch:normal;text-align:start;line-height:125%;letter-spacing:0px;word-spacing:0px;writing-mode:lr-tb;text-anchor:start;fill:#367ea4;fill-opacity:1;stroke:#ffffff;stroke-width:0.47901684;stroke-opacity:0.48430493;font-family:Latin Modern Sans Quotation;-inkscape-font-specification:Latin Modern Sans Quotation"
         id="path3946-6-0-4-6-46-0-2-5-1"
         inkscape:connector-curvature="0" />
      <path
         inkscape:export-ydpi="49.59"
         inkscape:export-xdpi="49.59"
         inkscape:export-filename="/home/sbe/qwat.png"
         sodipodi:nodetypes="cccsccssscccsccccscc"
         d="m 943.8764,-2740.7711 c 0,-0.2222 -0.2536,-0.6667 -0.3806,-0.8445 l -18.0154,-27.288 c -0.9514,-1.3776 -1.6493,-1.7332 -4.1866,-1.7332 -1.459,0 -3.0449,0 -4.1233,1.6444 l -18.0154,27.3768 c -0.1903,0.2666 -0.3807,0.5334 -0.3807,0.8445 0,0.9777 1.4592,0.9777 1.9666,0.9777 0.8881,0 2.5374,-0.044 3.6158,-1.6888 l 4.3136,-6.5776 24.105,0 3.2986,4.9776 c 1.9665,3.022 2.1568,3.2888 5.265,3.2888 1.2054,0 2.5374,0 2.5374,-0.9777 m -13.0674,-10.222 -20.2357,0 8.9579,-13.7286 c 0,0 0.4647,-1.0517 1.1916,-1.0506 0.7199,0 1.1749,1.0361 1.1749,1.0361 l 8.9113,13.7431"
         style="font-size:111.185112px;font-style:normal;font-variant:normal;font-weight:normal;font-stretch:normal;text-align:start;line-height:125%;letter-spacing:0px;word-spacing:0px;writing-mode:lr-tb;text-anchor:start;fill:#367ea4;fill-opacity:1;stroke:#ffffff;stroke-width:0.47901684;stroke-opacity:0.48430493;font-family:Latin Modern Sans Quotation;-inkscape-font-specification:Latin Modern Sans Quotation"
         id="path3948-9-6-7-0-0-5-4-7-6"
         inkscape:connector-curvature="0" />
      <path
         inkscape:export-ydpi="49.59"
         inkscape:export-xdpi="49.59"
         inkscape:export-filename="/home/sbe/qwat.png"
         d="m 977.22,-2768.5924 c 0,-1.4667 -1.8135,-1.4667 -2.6597,-1.4667 l -43.3419,0 c -0.8464,0 -2.6598,0 -2.6598,1.4667 0,1.4665 1.8134,1.4665 2.6598,1.4665 l 18.86,0 0,25.377 c 0,1.511 0.4836,1.9555 2.6598,1.9555 l 0.3627,0 c 2.0552,0 2.6598,-0.3556 2.6598,-1.9555 l 0,-25.377 18.7996,0 c 0.8462,0 2.6597,0 2.6597,-1.4665"
         style="font-size:111.185112px;font-style:normal;font-variant:normal;font-weight:normal;font-stretch:normal;text-align:start;line-height:125%;letter-spacing:0px;word-spacing:0px;writing-mode:lr-tb;text-anchor:start;fill:#367ea4;fill-opacity:1;stroke:#ffffff;stroke-width:0.47901684;stroke-opacity:0.48430493;font-family:Latin Modern Sans Quotation;-inkscape-font-specification:Latin Modern Sans Quotation"
         id="path3950-5-5-1-3-3-2-2-7-2"
         inkscape:connector-curvature="0" />
    </g>
    <path
       style="fill:#ffffff;fill-opacity:1;stroke:none"
       d="m 2275.9555,-1665.453 c 11.3754,5.8335 -2.6658,23.9853 -14.2631,46.8726 -11.5972,22.8881 -16.3586,41.8441 -27.7344,36.0102 -11.3756,-5.8328 -11.1962,-29.1158 0.4029,-52.0035 11.5973,-22.8872 30.2211,-36.7125 41.5961,-30.8793 z"
       id="path4040-6-3-1-8-9-6-3"
       inkscape:connector-curvature="0"
       sodipodi:nodetypes="sssss"
       inkscape:export-filename="/home/sbe/qwat_logo.png"
       inkscape:export-xdpi="179.93927"
       inkscape:export-ydpi="179.93927" />
  </g>
</svg>
